<svg width="40" height="40" fill="none" xmlns="http://www.w3.org/2000/svg"><circle cx="20" cy="20" r="20" fill="#CDF5FB"/><path d="M16.185 25.995v2.024c0 1.114.76 2.076 1.772 2.38v.91c0 .405.354.71.81.71h2.379c.455 0 .81-.304.81-.71v-.91a2.506 2.506 0 001.771-2.38v-2.024h-7.542z" fill="#AFEDF7"/><path d="M19.494 9.439c1.97-.126 3.858.587 5.283 1.971A7.016 7.016 0 0127 16.526a7.09 7.09 0 01-2.81 5.703c-.629.462-.964 1.216-.964 1.971v2.433c0 .922-.503 1.719-1.258 2.18v.587c0 .587-.503 1.049-1.133 1.049h-1.97c-.63 0-1.133-.462-1.133-1.049v-.377c-.964-.378-1.677-1.3-1.677-2.39v-2.726c0-.755-.294-1.426-.839-1.887-1.72-1.468-2.642-3.565-2.516-5.83.168-3.648 3.187-6.583 6.794-6.751z" fill="#ECFCFF"/><path d="M19.622 9.858c-2.725.126-5.451 2.977-6.374 5.452.252 1.006.168 1.551.42 1.677 1.677.839 3.187-5.787 6.038-5.451h.252a5.047 5.047 0 015.032 5.032c0 1.593-.713 3.02-2.013 3.984-1.132.838-1.761 2.222-1.761 3.648v4.487a2.11 2.11 0 001.677-2.055V24.2c0-.88.42-1.761 1.133-2.306a6.693 6.693 0 002.642-5.326c0-3.816-3.188-6.878-7.046-6.71z" fill="#ECFCFF"/><path d="M15.805 16.148l-.88-.083a5.012 5.012 0 014.529-4.53l.084.881a4.12 4.12 0 00-3.733 3.732z" fill="#4D535B"/><path d="M24.777 11.41c-1.425-1.384-3.312-2.097-5.283-1.971-3.607.168-6.626 3.103-6.794 6.752-.126 2.264.797 4.36 2.516 5.829.545.46.839 1.132.839 1.887v2.726c0 1.09.713 2.012 1.677 2.39v.377c0 .587.503 1.049 1.133 1.049h1.97c.63 0 1.133-.462 1.133-1.049v-.587c.755-.461 1.258-1.258 1.258-2.18V24.2c0-.755.335-1.51.964-1.97A7.09 7.09 0 0027 16.525a7.016 7.016 0 00-2.223-5.116zm-7.841 14.006h5.41v1.216h-5.41v-1.216zm.21 2.097h4.906a1.675 1.675 0 01-1.426.797h-2.097c-.545-.042-1.09-.336-1.384-.797zm3.9 1.887c0 .084-.085.168-.252.168h-1.971c-.126 0-.252-.084-.252-.168v-.21h2.097c.126 0 .251 0 .377-.041v.251zm2.557-7.842a3.38 3.38 0 00-1.3 2.642v.294h-5.367v-.63a3.39 3.39 0 00-1.133-2.557c-1.51-1.258-2.306-3.145-2.222-5.116.168-3.187 2.768-5.787 5.954-5.913h.294c1.636 0 3.145.629 4.32 1.72 1.258 1.173 1.928 2.809 1.928 4.528 0 2.013-.88 3.816-2.474 5.032z" fill="#4D535B"/></svg>