<?xml version="1.0" encoding="UTF-8"?> <svg xmlns="http://www.w3.org/2000/svg" width="456" height="456" viewBox="0 0 456 456" fill="none"><g clip-path="url(#clip0)"><path d="M47.4062 239.332L54.213 302.282C55.8385 317.309 66.8105 329.798 81.5415 333.351L294.278 384.625C310.837 388.585 327.803 380.462 335.118 365.232L375.857 280.047C379.819 271.721 380.429 262.177 377.584 253.445L335.321 123.991C331.054 110.792 319.473 101.248 305.758 99.5222L177.649 82.9724C164.95 81.3479 152.352 86.526 144.529 96.6792L54.6193 213.543C49.0317 220.853 46.3903 230.093 47.4062 239.332Z" fill="#E5F3FE"></path><path d="M184.252 146.329C122.179 146.329 71.8901 196.587 71.8901 258.624C71.8901 290.302 84.9957 318.934 106.127 339.342L216.864 366.045C262.987 352.034 296.513 309.288 296.513 258.624C296.513 196.587 246.224 146.329 184.252 146.329Z" fill="url(#paint0_radial)"></path><path d="M334.813 301.369C340.144 301.369 344.465 297.05 344.465 291.723C344.465 286.396 340.144 282.077 334.813 282.077C329.483 282.077 325.162 286.396 325.162 291.723C325.162 297.05 329.483 301.369 334.813 301.369Z" fill="#A65000"></path><path d="M408.062 210.599C388.962 190.089 362.954 178.718 335.016 178.718C307.078 178.718 281.172 189.988 261.971 210.599C259.736 212.934 259.939 216.589 262.276 218.823C264.612 221.057 268.27 220.853 270.505 218.518C287.471 200.344 310.329 190.394 335.016 190.394C359.703 190.394 382.562 200.344 399.528 218.518C400.646 219.737 402.271 220.346 403.795 220.346C405.217 220.346 406.64 219.838 407.757 218.823C410.195 216.589 410.297 212.934 408.062 210.599Z" fill="#F9C900"></path><path d="M386.727 234.56C372.606 220.346 354.217 212.426 335.118 212.426C316.018 212.426 297.63 220.244 283.509 234.56C281.274 236.794 281.274 240.551 283.509 242.784C285.744 245.018 289.503 245.018 291.738 242.784C303.726 230.702 319.066 224.102 335.118 224.102C351.17 224.102 366.51 230.702 378.498 242.784C379.616 243.901 381.14 244.51 382.664 244.51C384.187 244.51 385.61 243.901 386.727 242.784C388.962 240.551 388.962 236.896 386.727 234.56Z" fill="#EA9F00"></path><path d="M363.361 258.725C355.742 251.212 344.871 246.541 335.017 246.541H334.61C324.654 246.541 313.784 251.212 306.266 258.725C303.929 260.959 303.929 264.715 306.266 266.949C307.383 268.066 308.907 268.675 310.431 268.675C311.955 268.675 313.377 268.066 314.495 266.949C319.879 261.568 327.803 258.116 334.61 258.116H335.017C341.823 258.116 349.748 261.568 355.132 266.949C357.469 269.183 361.126 269.183 363.361 266.949C365.698 264.715 365.698 260.959 363.361 258.725Z" fill="#D07800"></path><path d="M255.063 297.511C281.782 291.114 291.738 296.901 300.272 301.166C308.704 305.43 331.664 307.664 338.979 316.599C343.55 322.284 335.321 325.533 335.321 325.533C335.321 325.533 361.532 317.817 370.879 317.208C384.086 316.294 390.588 317.919 391.401 324.924C392.315 332.032 341.518 355.587 324.248 356.399C306.977 357.212 255.266 337.108 252.015 334.265C248.865 331.524 255.063 297.511 255.063 297.511Z" fill="url(#paint1_linear)"></path><path d="M288.995 296.394C281.68 294.262 271.622 293.652 255.164 297.511C255.164 297.511 248.967 331.524 252.116 334.367C252.929 335.078 256.485 336.702 261.666 338.834C273.756 327.056 283.102 312.537 288.995 296.394Z" fill="url(#paint2_linear)"></path><path d="M228.141 274.057C226.007 292.942 201.015 332.844 201.015 332.844C201.015 332.844 243.075 339.748 247.443 340.154C251.812 340.662 255.672 338.022 256.891 334.875C258.11 331.727 265.628 303.095 268.168 294.363C270.708 285.733 266.949 284.514 260.65 282.382C254.25 280.25 228.141 274.057 228.141 274.057Z" fill="url(#paint3_linear)"></path><path d="M335.321 325.533C332.883 327.26 321.81 327.158 312.971 324.924C303.218 322.589 293.871 319.34 291.941 318.02C289.909 316.7 291.128 319.34 293.567 320.66C297.224 322.792 307.586 326.549 311.752 327.564C318.051 329.189 327.905 329.493 333.29 328.579C338.674 327.564 339.69 324.214 339.284 324.315C338.776 324.62 335.321 325.533 335.321 325.533Z" fill="url(#paint4_linear)"></path><path d="M164.645 345.129C228.272 345.129 279.852 293.58 279.852 229.991C279.852 166.403 228.272 114.854 164.645 114.854C101.018 114.854 49.4382 166.403 49.4382 229.991C49.4382 293.58 101.018 345.129 164.645 345.129Z" fill="url(#paint5_linear)"></path><path d="M163.121 170.9C164.543 170.798 165.966 170.696 165.559 170.493C165.254 170.29 165.559 169.58 165.864 169.377C166.169 169.173 166.982 168.767 166.474 168.158C165.966 167.549 164.95 167.752 164.848 167.244C164.747 166.737 162.715 162.98 162.308 162.98C161.902 162.98 160.886 162.777 161.089 162.269C161.292 161.863 162.918 160.949 162.511 160.34C162.207 159.731 160.683 160.34 160.581 159.731C160.48 159.122 161.089 158.614 160.581 158.513C160.073 158.411 158.651 158.513 158.448 159.122C158.245 159.731 157.737 161.254 158.041 161.762C158.346 162.269 159.362 163.285 158.956 163.589C158.651 163.894 159.768 164.808 160.073 165.112C160.378 165.417 161.089 166.432 160.581 166.838C160.073 167.143 159.362 166.737 159.362 167.447C159.362 168.158 159.565 168.463 159.26 168.767C158.956 168.97 157.635 168.97 157.838 169.377C158.041 169.783 160.581 170.392 159.87 170.696C159.26 170.9 157.229 171.61 157.533 171.915C157.838 172.219 159.565 172.524 160.276 172.219C161.191 171.712 161.597 171.001 163.121 170.9Z" fill="url(#paint6_linear)"></path><path d="M156.822 167.752C157.229 166.94 157.737 165.721 157.33 165.315C157.026 164.909 156.721 163.691 155.908 163.995C155.095 164.198 154.892 165.011 154.587 165.011C154.282 165.011 152.962 164.808 152.962 165.315C152.962 165.823 153.47 166.534 153.165 167.041C152.86 167.549 151.336 169.174 152.047 169.58C152.657 169.884 153.876 170.087 154.994 169.58C155.908 168.97 156.518 168.26 156.822 167.752Z" fill="url(#paint7_linear)"></path><path d="M242.262 289.794C243.989 286.444 248.866 283.601 249.577 281.875C250.288 280.149 251.304 279.438 251.304 280.555C251.304 281.672 249.069 289.896 246.732 294.058C244.395 298.221 240.433 304.516 238.808 303.095C237.182 301.673 238.198 300.252 238.503 299.44C238.808 298.627 241.348 296.191 241.449 295.175C241.551 294.16 241.144 291.723 242.262 289.794Z" fill="url(#paint8_linear)"></path><path d="M154.587 133.84C152.555 137.902 148.796 141.557 146.663 141.557C144.529 141.557 138.942 144.603 136.808 144.298C134.675 143.994 133.964 144.603 132.541 145.415C131.119 146.227 125.43 151.304 124.414 150.39C123.398 149.476 122.585 147.852 123.296 146.43C124.008 145.009 127.563 138.714 129.29 138.612C131.018 138.511 132.034 138.308 134.98 134.653C138.028 130.896 140.669 130.896 139.856 129.779C139.043 128.662 140.263 127.241 140.872 127.038C141.482 126.835 145.444 126.327 150.117 125.616C154.79 124.905 155.298 125.007 157.635 126.327C160.073 127.647 159.87 128.561 160.886 128.764C161.902 128.865 156.416 130.084 156.009 131.2C155.705 132.216 155.4 132.317 154.587 133.84Z" fill="url(#paint9_linear)"></path><path d="M63.458 175.062C64.5755 176.89 65.0835 177.804 64.3723 179.225C63.5596 181.053 61.7309 184.2 61.5277 185.317C61.3246 186.434 59.2927 189.581 60.4102 189.886C61.5277 190.089 62.95 187.348 63.1532 186.231C63.3564 185.114 64.3723 181.053 66.709 179.124C68.944 177.296 71.8902 176.484 72.9062 174.961C73.9221 173.336 74.6333 170.798 75.7508 170.392C76.8683 169.986 78.2906 168.158 79.9161 168.057C81.5416 167.854 82.5575 168.158 83.2687 167.346C83.9798 166.635 84.183 165.62 86.1133 165.112C88.0436 164.706 89.4659 164.3 90.0754 164.503C90.685 164.706 91.3961 164.604 91.8025 163.589C92.2089 162.574 92.8184 161.355 94.0375 160.848C95.2567 160.442 96.2726 160.137 95.7646 159.122C95.3583 158.005 94.6471 158.005 95.8662 157.497C96.9837 156.99 97.0853 158.005 98.6092 158.513C100.133 159.02 100.336 158.411 102.47 158.513C104.705 158.614 105.924 158.919 106.635 157.396C107.346 155.873 106.432 153.639 107.143 152.014C107.854 150.39 110.394 146.633 111.918 145.11C113.442 143.587 108.667 146.024 108.667 145.11C108.667 144.196 110.089 143.689 111.004 142.166C111.918 140.643 112.324 139.018 112.121 138.105C111.918 137.191 107.956 140.846 105.822 141.049C103.689 141.252 104.095 143.384 102.775 144.095C101.555 144.806 98.1013 144.907 97.6949 145.821C97.2885 146.735 93.428 150.898 92.8184 149.578C92.2089 148.359 96.171 144.4 96.679 144.196C97.1869 143.993 97.4917 143.79 97.8981 142.978C98.3045 142.166 100.235 139.018 101.759 137.597C103.283 136.175 107.143 132.622 114.356 132.216C121.468 131.81 120.96 131.403 122.788 130.083C124.719 128.865 122.077 126.327 122.382 125.718C122.585 125.311 122.179 124.093 122.687 122.57C97.4917 132.622 76.3603 151.304 63.458 175.062Z" fill="url(#paint10_linear)"></path><path d="M76.3604 257.608C73.9222 255.882 73.211 251.313 72.0935 247.353C70.976 243.394 71.0776 243.8 67.8266 239.434C64.6772 235.068 63.9661 235.068 62.5438 228.367C61.3246 222.681 56.4482 221.158 50.0478 218.112C49.6414 221.97 49.4382 225.93 49.4382 229.991C49.4382 262.989 63.3565 292.738 85.6054 313.756C85.9102 311.725 86.5197 309.593 86.7229 308.781C87.2309 307.359 86.5197 305.227 85.9102 303.399C85.3006 301.572 86.4181 300.658 88.1452 299.643C89.9739 298.627 91.0914 300.15 92.8185 299.643C94.6472 299.135 93.3265 289.083 93.3265 286.748C93.3265 284.311 94.952 284.311 95.9679 282.585C96.9838 280.859 98.4061 278.016 95.9679 271.721C93.5297 265.426 78.7987 259.436 76.3604 257.608Z" fill="url(#paint11_linear)"></path><path d="M276.905 204.101C267.254 162.066 234.642 128.865 192.888 118.407C188.926 123.078 191.77 122.469 192.888 123.484C194.005 124.499 202.336 129.373 200.914 130.185C199.491 130.997 201.726 134.652 199.288 136.886C196.85 139.12 196.037 142.166 195.936 143.79C195.834 145.415 195.021 141.354 192.177 140.947C189.332 140.541 185.065 136.277 182.627 137.901C180.189 139.526 177.649 140.541 176.734 142.775C175.718 145.212 172.061 150.898 170.029 152.522C168.709 153.537 169.42 157.396 171.045 158.208C172.671 159.02 173.89 157.396 175.718 157.396C177.547 157.396 178.563 162.066 179.782 162.066C181.001 162.066 182.83 160.848 183.033 155.974C183.236 151.101 180.595 153.131 180.595 151.913C180.595 150.695 183.033 145.415 184.252 145.821C185.471 146.227 185.878 146.633 185.471 147.445C185.065 148.258 183.744 149.172 184.049 150.593C184.354 152.014 185.471 153.944 186.792 154.147C188.113 154.35 189.84 153.131 191.567 152.624C193.294 152.116 193.091 153.537 192.888 154.045C192.685 154.553 189.738 154.857 189.332 155.263C188.824 155.67 187.503 157.599 188.011 159.122C188.519 160.645 188.519 163.386 187.503 163.386C186.487 163.386 185.167 162.675 184.455 163.386C183.744 164.097 182.322 164.808 181.814 164.808C181.306 164.808 180.595 164.3 179.884 164.401C179.071 164.503 178.969 165.62 178.258 165.518C177.547 165.417 176.125 164.097 176.328 162.98C176.633 161.863 176.938 160.848 176.226 160.137C175.515 159.426 173.991 160.036 173.89 160.746C173.687 161.457 174.296 163.589 174.804 164.3C175.312 165.011 175.007 166.026 174.804 166.026C174.601 166.026 172.366 166.127 171.553 166.838C170.74 167.549 170.334 170.087 169.318 170.087C168.302 170.189 167.185 169.884 167.083 170.798C166.981 171.712 165.153 174.25 164.238 173.844C163.324 173.336 163.223 172.524 162.715 173.133C162.207 173.742 163.426 175.164 162.105 175.164C160.784 175.164 159.565 174.149 158.854 174.961C158.143 175.773 161.8 176.991 162.105 178.108C162.41 179.327 164.035 184.505 161.902 184.505C159.768 184.505 154.384 182.677 152.962 183.591C151.539 184.606 151.031 183.794 151.031 184.911C151.031 186.028 151.742 189.683 150.422 190.8C149.203 191.917 149.609 192.627 150.015 193.338C150.422 194.049 149.711 195.166 150.422 195.876C151.133 196.587 153.165 195.775 153.774 196.689C154.384 197.602 155.298 198.212 156.009 197.907C156.721 197.602 159.362 196.689 160.581 196.79C161.699 196.892 163.527 194.252 164.238 194.049C165.051 193.846 164.137 192.323 164.238 192.018C164.34 191.714 165.356 188.058 167.591 187.855C169.826 187.652 168.912 185.216 169.42 185.012C170.029 184.809 172.671 184.403 173.585 184.606C174.499 184.911 176.328 181.966 177.446 182.271C178.461 182.576 179.681 183.083 179.884 183.693C180.087 184.302 182.017 186.535 183.236 186.84C184.557 187.145 186.792 187.957 187.503 188.972C188.214 189.988 189.637 190.597 189.535 191.511C189.434 192.424 188.418 193.44 189.332 193.541C190.246 193.744 192.075 191.307 191.872 190.495C191.669 189.683 191.567 189.48 192.075 189.48C192.481 189.48 193.192 188.363 192.38 188.058C191.567 187.754 187.3 186.535 186.386 185.52C185.471 184.505 185.268 183.794 184.354 183.083C183.44 182.373 181.611 182.068 181.814 180.545C182.017 178.921 183.033 178.921 183.744 179.327C184.455 179.733 185.268 179.834 185.675 180.647C186.081 181.459 186.487 182.576 187.706 182.779C188.926 183.083 192.278 184.708 192.685 185.216C193.192 185.723 194.005 186.535 194.005 187.855C194.005 189.175 195.732 189.683 196.342 190.698C196.951 191.815 197.358 194.557 199.491 194.658C201.726 194.76 201.32 191.511 200.812 191.003C200.304 190.495 197.967 188.566 198.374 187.754C198.78 186.942 198.983 187.652 199.694 187.551C200.406 187.449 200.507 186.129 201.015 186.129C201.422 186.129 203.961 185.825 203.86 187.348C203.758 188.871 205.587 190.089 205.79 190.901C205.993 191.815 207.111 193.034 208.431 193.034C209.752 193.034 217.981 190.901 218.692 191.612C219.404 192.323 221.131 200.445 220.216 201.055C219.2 201.562 212.394 204.507 210.565 204.101C208.736 203.694 203.961 202.07 201.625 202.273C199.288 202.476 197.967 203.593 197.967 204.71C197.967 205.928 198.577 208.06 197.053 207.654C195.529 207.248 190.449 205.217 188.824 204.304C187.198 203.39 180.493 203.187 180.9 201.664C181.306 200.141 183.948 196.993 181.509 196.181C179.173 195.267 168.099 196.486 166.778 197.298C165.458 198.009 162.003 201.156 160.581 200.648C159.159 200.141 156.517 199.125 155.197 199.532C153.876 200.039 150.727 202.07 150.015 203.796C149.304 205.522 141.685 215.066 138.027 217.706C132.237 221.97 133.964 226.641 132.745 232.834C132.135 235.779 130.205 238.114 130.814 240.145C132.643 246.135 141.482 260.654 146.358 261.06C151.336 261.466 166.575 260.045 171.756 258.522C176.938 256.897 183.033 262.076 183.033 264.715C183.033 267.254 180.697 269.284 182.83 272.838C184.963 276.392 191.973 277.61 190.551 285.53C189.129 293.449 184.557 295.074 185.979 299.033C187.402 302.993 190.754 307.765 190.754 311.522C190.754 315.279 191.973 322.589 194.31 322.589C196.647 322.589 204.469 323.401 209.041 320.457C213.613 317.512 218.184 310.303 221.537 308.577C224.89 306.75 225.702 306.242 226.515 304.212C227.328 302.181 225.905 301.267 226.515 299.643C227.125 298.018 234.643 295.48 236.471 290.302C238.3 285.123 235.862 278.828 236.471 272.229C237.081 265.731 246.224 256.593 247.951 252.836C249.78 249.079 253.64 248.166 252.421 238.926C251.609 233.24 249.78 241.363 243.989 238.52C238.198 235.779 235.862 232.53 233.423 227.758C231.087 222.986 221.537 213.442 221.537 210.7C221.537 207.959 222.553 206.131 224.077 207.959C225.601 209.786 230.985 214.152 231.595 216.284C232.204 218.417 233.931 222.275 237.589 224.001C241.144 225.828 240.027 232.022 242.364 232.936C245.107 233.951 248.358 229.788 252.929 222.376C257.501 214.965 259.228 210.903 257.501 208.06C255.672 205.319 253.539 203.288 251.304 204.913C249.17 206.537 250.897 205.928 247.748 206.537C244.599 207.147 240.433 202.984 239.417 200.547C238.401 198.212 241.754 199.125 242.364 199.125C242.973 199.125 250.491 202.07 254.25 201.461C258.009 200.852 260.65 197.095 262.581 198.719C264.612 200.344 266.543 199.938 267.152 202.679C267.762 205.42 272.537 212.02 273.146 214.355C273.756 216.691 273.553 222.275 275.483 222.275C277.515 222.275 274.873 212.325 275.28 209.685C275.889 208.873 275.991 206.943 276.905 204.101Z" fill="url(#paint12_linear)"></path><path d="M149.203 149.578C151.133 149.375 153.368 148.765 152.86 147.547C152.352 146.329 151.234 146.227 149.914 146.125C148.593 145.922 147.475 145.922 147.171 145.618C146.968 145.313 145.444 144.806 145.444 145.618C145.444 146.43 145.647 146.532 145.748 147.344C145.85 148.156 146.053 149.984 149.203 149.578Z" fill="url(#paint13_linear)"></path><path d="M245.513 122.063H238.3V88.8614C238.3 78.2005 247.037 69.4688 257.704 69.4688C268.372 69.4688 277.109 78.2005 277.109 88.8614V94.9534H269.896V88.8614C269.896 82.1603 264.409 76.6776 257.704 76.6776C250.999 76.6776 245.513 82.1603 245.513 88.8614V122.063Z" fill="#0B82E3"></path><path d="M281.883 155.67H232.204C229.055 155.67 226.515 153.132 226.515 149.984V113.432C226.515 110.285 229.055 107.747 232.204 107.747H281.883C285.033 107.747 287.573 110.285 287.573 113.432V149.984C287.573 153.132 285.033 155.67 281.883 155.67Z" fill="url(#paint14_linear)"></path><path d="M263.8 126.936C263.8 123.18 260.752 120.134 256.993 120.134C253.234 120.134 250.186 123.18 250.186 126.936C250.186 129.678 251.812 132.013 254.047 133.028V139.628C254.047 140.643 254.86 141.455 255.875 141.455H258.009C259.025 141.455 259.838 140.643 259.838 139.628V133.028C262.276 132.013 263.8 129.678 263.8 126.936Z" fill="url(#paint15_linear)"></path></g><defs><radialGradient id="paint0_radial" cx="0" cy="0" r="1" gradientUnits="userSpaceOnUse" gradientTransform="translate(184.219 256.137) scale(111.139 111.073)"><stop stop-color="#0B82E3"></stop><stop offset="1" stop-color="#C5E5FC"></stop></radialGradient><linearGradient id="paint1_linear" x1="322.903" y1="225.327" x2="319.815" y2="423.871" gradientUnits="userSpaceOnUse"><stop stop-color="#0171D3"></stop><stop offset="1" stop-color="#015CBE"></stop></linearGradient><linearGradient id="paint2_linear" x1="227.281" y1="219.29" x2="280.252" y2="337.284" gradientUnits="userSpaceOnUse"><stop stop-color="#0171D3"></stop><stop offset="1" stop-color="#003EA1"></stop></linearGradient><linearGradient id="paint3_linear" x1="243.549" y1="214.111" x2="232.655" y2="336.808" gradientUnits="userSpaceOnUse"><stop offset="0.000705949" stop-color="#003EA1"></stop><stop offset="1" stop-color="#0C227B"></stop></linearGradient><linearGradient id="paint4_linear" x1="310.007" y1="199.532" x2="314.614" y2="309.33" gradientUnits="userSpaceOnUse"><stop stop-color="#0171D3"></stop><stop offset="1" stop-color="#015CBE"></stop></linearGradient><linearGradient id="paint5_linear" x1="128.996" y1="120.533" x2="200.252" y2="339.561" gradientUnits="userSpaceOnUse"><stop offset="0.000670651" stop-color="#003EA1"></stop><stop offset="1" stop-color="#0C227B"></stop></linearGradient><linearGradient id="paint6_linear" x1="108.179" y1="4.21502" x2="214.265" y2="330.306" gradientUnits="userSpaceOnUse"><stop offset="0.000717715" stop-color="#015CBE"></stop><stop offset="0.9983" stop-color="#003EA1"></stop></linearGradient><linearGradient id="paint7_linear" x1="102.116" y1="6.18771" x2="208.201" y2="332.279" gradientUnits="userSpaceOnUse"><stop offset="0.000717715" stop-color="#015CBE"></stop><stop offset="0.9983" stop-color="#003EA1"></stop></linearGradient><linearGradient id="paint8_linear" x1="147.065" y1="-8.4354" x2="253.151" y2="317.656" gradientUnits="userSpaceOnUse"><stop offset="0.000717715" stop-color="#015CBE"></stop><stop offset="0.9983" stop-color="#003EA1"></stop></linearGradient><linearGradient id="paint9_linear" x1="99.3286" y1="7.09444" x2="205.415" y2="333.185" gradientUnits="userSpaceOnUse"><stop offset="0.000717715" stop-color="#015CBE"></stop><stop offset="0.9983" stop-color="#003EA1"></stop></linearGradient><linearGradient id="paint10_linear" x1="48.3829" y1="23.6682" x2="154.469" y2="349.759" gradientUnits="userSpaceOnUse"><stop offset="0.000717715" stop-color="#015CBE"></stop><stop offset="0.9983" stop-color="#003EA1"></stop></linearGradient><linearGradient id="paint11_linear" x1="0.821644" y1="39.1412" x2="106.908" y2="365.232" gradientUnits="userSpaceOnUse"><stop offset="0.000717715" stop-color="#015CBE"></stop><stop offset="0.9983" stop-color="#003EA1"></stop></linearGradient><linearGradient id="paint12_linear" x1="130.886" y1="-3.17222" x2="236.972" y2="322.919" gradientUnits="userSpaceOnUse"><stop offset="0.000717715" stop-color="#015CBE"></stop><stop offset="0.9983" stop-color="#003EA1"></stop></linearGradient><linearGradient id="paint13_linear" x1="103.094" y1="5.86915" x2="209.18" y2="331.96" gradientUnits="userSpaceOnUse"><stop offset="0.000717715" stop-color="#015CBE"></stop><stop offset="0.9983" stop-color="#003EA1"></stop></linearGradient><linearGradient id="paint14_linear" x1="251.879" y1="108.821" x2="262.107" y2="154.144" gradientUnits="userSpaceOnUse"><stop stop-color="#0171D3"></stop><stop offset="1" stop-color="#015CBE"></stop></linearGradient><linearGradient id="paint15_linear" x1="263.654" y1="172.878" x2="254.162" y2="106.778" gradientUnits="userSpaceOnUse"><stop stop-color="#0C227B"></stop><stop offset="1" stop-color="#0C154B"></stop></linearGradient><clipPath id="clip0"><rect width="362.484" height="316.172" fill="white" transform="translate(47.2031 69.4688)"></rect></clipPath></defs></svg> 