<?xml version="1.0" encoding="UTF-8"?> <svg xmlns="http://www.w3.org/2000/svg" width="456" height="456" viewBox="0 0 456 456" fill="none"><path d="M194.724 73.5222L379.221 180.306C384.831 183.552 389.341 188.403 392.173 194.233C395.004 200.063 396.028 206.607 395.111 213.024L382.368 302.219C381.686 306.998 379.947 311.564 377.278 315.587C374.61 319.609 371.078 322.987 366.941 325.474L259.588 390C254.979 392.77 249.754 394.353 244.383 394.607C239.011 394.861 233.661 393.778 228.811 391.455L89.5636 324.757C84.4943 322.329 80.1415 318.627 76.9306 314.014C73.7197 309.4 71.7604 304.033 71.2442 298.436L60.6998 184.112C60.2437 179.166 60.9275 174.182 62.6987 169.541C64.47 164.901 67.2814 160.728 70.9171 157.344L156.308 77.8605C161.402 73.1186 167.884 70.1377 174.8 69.3566C181.716 68.5756 188.7 70.0358 194.724 73.5222Z" fill="#E5F3FE"></path><path d="M303.029 178.866C286.164 175.67 243.982 165.811 217.979 143.443C216.349 142.034 214.271 141.25 212.116 141.233C209.961 141.216 207.871 141.967 206.219 143.35C180.141 165.031 137.916 175.365 121.156 178.776C119.125 179.192 117.3 180.297 115.99 181.903C114.68 183.51 113.966 185.521 113.969 187.594V213.242C113.969 341.699 189.705 374.701 208.143 380.832C210.746 381.699 213.56 381.699 216.163 380.832C234.601 374.701 310.337 341.699 310.337 213.242V187.708C310.34 185.614 309.611 183.584 308.277 181.97C306.943 180.355 305.087 179.258 303.029 178.866Z" fill="url(#paint0_linear)"></path><path d="M277.7 193.043C313.9 193.043 343.247 163.697 343.247 127.496C343.247 91.2956 313.9 61.9492 277.7 61.9492C241.499 61.9492 212.153 91.2956 212.153 127.496C212.153 163.697 241.499 193.043 277.7 193.043Z" fill="#87CAFA"></path><path d="M256.452 170.329C248.286 170.502 240.213 172.092 232.592 175.027C244.555 186.393 260.368 192.826 276.869 193.038C293.369 193.25 309.342 187.226 321.593 176.17C312.804 174.016 303.795 172.884 294.746 172.794C286.634 172.794 256.452 170.329 256.452 170.329Z" fill="#F9C900"></path><path d="M370.72 210.574H186.511C183.475 210.574 181.015 213.035 181.015 216.07V245.898C181.015 248.933 183.475 251.394 186.511 251.394H370.72C373.755 251.394 376.216 248.933 376.216 245.898V216.07C376.216 213.035 373.755 210.574 370.72 210.574Z" fill="#41A1ED"></path><path d="M277.938 157.823C286.608 157.732 295.312 159.571 295.676 160.298C296.039 161.025 293.182 165.499 292.21 165.914C291.238 166.328 264.295 166.55 263.435 165.914C262.575 165.277 259.302 160.869 260.075 159.323C260.849 157.777 264.03 157.369 265.121 157.369C266.212 157.369 277.938 157.823 277.938 157.823Z" fill="#C5E5FC"></path><path d="M262.62 141.233L263.435 164.141L282.71 176.231L286.438 175.413L291.256 166.686C291.256 166.686 290.71 154.505 288.892 151.232C287.074 147.96 262.62 141.233 262.62 141.233Z" fill="#F7B391"></path><path opacity="0.65" d="M290.866 161.3C290.517 157.602 289.901 153.048 288.892 151.233C288.502 150.53 287.066 149.668 285.055 148.747L262.79 146.005L262.883 148.606C264.683 152.554 266.51 155.492 269.529 156.778C273.211 158.346 276.198 160.46 284.897 161.209C286.88 161.421 288.878 161.452 290.866 161.3Z" fill="url(#paint1_linear)"></path><path d="M270.347 84.3262C264.893 87.0536 255.075 91.7803 254.348 97.4165C253.622 103.053 253.258 122.87 254.348 125.052C255.439 127.233 257.63 137.699 259.098 140.415C260.621 143.233 265.111 149.535 269.257 152.073C273.166 154.466 278.461 154.312 284.529 154.323C291.211 154.336 294.65 152.461 296.347 151.453C297.483 150.778 298.71 143.439 299.437 140.336C300.165 137.233 304.528 131.233 304.528 126.688C304.528 122.143 302.369 100.712 301.369 95.6215C300.369 90.5313 304.892 93.417 300.71 90.1444C296.528 86.8718 270.347 84.3262 270.347 84.3262Z" fill="#F9BFA3"></path><path opacity="0.65" d="M301.369 95.6213C301.337 95.459 301.311 95.3052 301.29 95.1585L292.992 91.417L257.96 94.4168C257.96 94.4168 253.712 95.9621 255.621 98.2348C257.53 100.507 266.732 105.496 273.927 104.859C281.122 104.223 280.031 98.1773 286.199 97.4961C293.812 96.6553 298.028 97.1212 301.979 99.597C301.753 97.896 301.543 96.5073 301.369 95.6213Z" fill="url(#paint2_linear)"></path><path d="M254.001 123.434C255.416 123.673 255.936 123.863 256.348 123.434C257.394 122.347 256.803 96.3262 256.803 96.3262C256.803 96.3262 260.984 101.27 271.166 101.907C281.347 102.543 279.893 94.6898 286.529 94.5081C293.165 94.3264 300.061 96.0512 301.85 98.6436C305.165 96.8302 307.958 91.5869 308.892 88.5998C309.57 86.4288 303.891 79.4183 293.074 76.3276C283.714 73.8212 273.809 74.2653 264.712 77.5993C258.803 80.0536 248.713 85.3262 247.53 88.5079C246.087 93.2124 245.653 98.1689 246.258 103.053C246.803 106.507 249.712 118.598 250.167 119.325C250.621 120.052 253.081 123.28 254.001 123.434Z" fill="url(#paint3_linear)"></path><path opacity="0.65" d="M264.348 127.461C265.393 132.87 268.347 134.688 270.484 135.438C272.066 135.993 275.984 136.583 277.833 134.961C280.182 133.107 281.769 130.454 282.291 127.507C282.673 125.23 283.801 122.507 287.379 122.28C288.846 122.187 291.414 122.805 291.256 124.371C291.178 125.842 291.41 127.313 291.937 128.689C292.699 130.626 293.817 132.403 295.233 133.929C296.617 135.195 298.421 135.903 300.297 135.916C300.693 135.857 301.066 135.692 301.375 135.438C301.684 135.183 301.918 134.849 302.052 134.472C302.283 133.996 299.187 124.462 299.187 124.462L292.76 122.556L290.309 121.281L286.972 120.708L283.165 122.212L264.348 127.461Z" fill="url(#paint4_linear)"></path><path d="M292.428 123.836C291.338 122.537 289.816 121.675 288.142 121.41C286.42 121.413 284.749 121.99 283.393 123.051C283.138 123.211 282.895 123.365 282.663 123.501L281.919 122.238C282.138 122.109 282.369 121.963 282.611 121.811C284.233 120.563 286.233 119.907 288.279 119.95C290.343 120.246 292.224 121.297 293.557 122.901L292.428 123.836Z" fill="#0C154B"></path><path d="M264.68 120.997C260.162 120.829 252.689 120.709 251.22 120.723L251.204 119.257C252.728 119.243 260.108 119.36 264.735 119.532L264.68 120.997Z" fill="#0C154B"></path><path d="M301.485 107.729C306.822 108.166 309.562 113.504 309.148 121.354C309.004 124.092 306.874 133.823 300.155 133.483C295.592 133.252 291.288 128.628 291.73 119.859C292.143 111.676 297.406 107.395 301.485 107.729Z" fill="#E5F3FE"></path><path d="M300.504 134.254C300.376 134.254 300.248 134.25 300.116 134.244C295.373 134.003 290.487 129.387 290.969 119.821C290.985 117.835 291.4 115.873 292.188 114.051C292.977 112.229 294.124 110.584 295.561 109.213C296.361 108.462 297.302 107.877 298.329 107.492C299.356 107.107 300.45 106.929 301.547 106.97C307.149 107.429 310.353 112.956 309.909 121.394C309.772 123.989 307.665 134.254 300.504 134.254ZM301.036 108.472C299.368 108.548 297.782 109.217 296.564 110.359C295.16 111.589 292.764 114.463 292.49 119.898C292.061 128.419 296.182 132.519 300.193 132.722C306.446 133.038 308.285 123.254 308.387 121.314C308.789 113.673 306.185 108.878 301.422 108.488C301.295 108.477 301.167 108.472 301.037 108.472H301.036Z" fill="#0C154B"></path><path d="M274.153 107.693C279.606 107.865 283.055 112.659 283.083 120.71C283.096 124.655 281.392 129.651 278.841 131.887C276.289 134.122 272.839 133.771 271.151 133.392C268.695 132.839 263.809 129.52 263.905 120.572C264.009 110.871 269.985 107.561 274.153 107.693Z" fill="#E5F3FE"></path><path d="M273.64 134.421C272.747 134.419 271.857 134.32 270.986 134.126C268.233 133.506 263.054 129.874 263.153 120.564C263.215 114.726 265.349 111.468 267.127 109.763C268.057 108.849 269.159 108.129 270.369 107.645C271.579 107.161 272.873 106.921 274.176 106.941C280.105 107.128 283.806 112.403 283.835 120.708C283.847 124.479 282.275 129.877 279.336 132.452C277.742 133.783 275.716 134.484 273.64 134.421ZM273.901 108.44C271.752 108.48 269.7 109.341 268.168 110.848C265.916 113.007 264.702 116.372 264.657 120.58C264.568 128.928 268.974 132.131 271.316 132.658C272.633 132.955 275.953 133.417 278.345 131.321C280.594 129.351 282.344 124.691 282.33 120.713C282.305 113.192 279.238 108.605 274.128 108.444C274.053 108.442 273.977 108.44 273.901 108.44Z" fill="#0C154B"></path><path d="M254.439 123.961C253.53 121.416 251.711 117.87 249.893 117.598C249.146 117.489 248.384 117.594 247.693 117.9C247.003 118.205 246.413 118.699 245.991 119.325C245.391 120.583 245.153 121.983 245.302 123.369C245.313 124.927 246.265 128.735 248.075 130.279C249.429 131.496 251.165 132.203 252.984 132.279C254.302 132.188 257.302 131.324 257.256 130.733C257.211 130.142 254.439 123.961 254.439 123.961Z" fill="#F9BFA3"></path><path opacity="0.65" d="M290.903 132.199C291.004 131.67 290.939 131.122 290.716 130.631C290.63 130.478 288.483 127.205 288.96 126.694C289.149 126.491 289.379 126.745 289.505 126.967C291.187 129.904 293.238 130.87 293.238 131.824C293.16 132.834 292.694 133.774 291.938 134.448C291.181 135.122 290.194 135.477 289.182 135.438C287.528 135.437 287.38 135.071 287.379 134.875C287.398 134.726 287.467 134.588 287.575 134.483C287.682 134.378 287.822 134.312 287.971 134.296C290.17 133.928 290.818 132.966 290.903 132.199Z" fill="url(#paint5_linear)"></path><path d="M299.544 174.607C294.633 180.38 293.091 179.344 292.495 179.196C291.356 178.687 290.247 178.112 289.175 177.474L296.857 168.982C296.857 168.982 300.48 171.942 300.29 172.831C300.131 173.456 299.879 174.055 299.544 174.607Z" fill="url(#paint6_linear)"></path><path d="M276.27 177.241C275.597 180.026 274.662 181.117 273.493 181.117C272.324 181.117 263.529 176.44 261.552 173.7C259.575 170.96 257.19 167.618 257.257 166.868C257.325 166.118 274.883 175.854 274.883 175.854L276.269 177.242" fill="url(#paint7_linear)"></path><path d="M279.938 167.277C280.483 167.686 283.074 174.413 283.71 174.413C284.347 174.413 284.938 170.573 285.074 169.936C285.761 168.503 286.651 167.177 287.716 165.997C288.232 165.622 290.665 165.459 290.938 166.55C291.21 167.641 293.074 173.732 292.483 174.413C291.892 175.095 285.12 181.686 283.892 181.686C282.029 181.686 277.075 178.731 273.847 174.641C270.62 170.55 279.938 167.277 279.938 167.277Z" fill="url(#paint8_linear)"></path><path opacity="0.65" d="M279.938 167.277C278.392 170.652 276.27 177.242 276.27 177.242C276.27 177.242 275.839 176.863 274.883 175.854C273.927 174.845 278.245 167.073 279.938 167.277Z" fill="url(#paint9_linear)"></path><path d="M260.758 158.553C259.585 159.179 258.644 160.167 258.075 161.369C257.848 161.778 255.893 165.914 256.03 166.505C256.166 167.096 260.075 170.914 261.666 172.141C264.895 174.467 268.265 176.592 271.756 178.504C272.16 178.601 272.583 178.575 272.972 178.429C273.361 178.283 273.697 178.025 273.938 177.686C274.165 177.414 278.938 167.369 279.938 167.278C277.608 166.386 273.068 165.496 270.893 164.823C268.393 164.051 263.415 162.165 262.188 160.693C261.652 160.021 261.174 159.305 260.758 158.553Z" fill="#F0F9FF"></path><path opacity="0.65" d="M289.274 177.53C285.773 174.709 287.188 166.023 287.631 166.207C288.074 166.391 294.736 170.482 294.736 170.482L291.924 174.993L289.274 177.53Z" fill="url(#paint10_linear)"></path><path d="M295.676 160.298C294.777 161.538 293.688 162.627 292.449 163.525C291.462 164.256 287.494 165.608 287.631 166.207C287.767 166.805 292.403 176.888 293.403 176.843C294.403 176.797 300.266 172.57 300.357 171.979C300.105 169.857 299.57 167.778 298.767 165.798C297.857 163.707 296.028 160.264 295.676 160.298Z" fill="#F0F9FF"></path><path d="M320.698 264.478H140.241C137.614 264.478 135.485 266.607 135.485 269.233V291.122C135.485 293.748 137.614 295.877 140.241 295.877H320.698C323.324 295.877 325.453 293.748 325.453 291.122V269.233C325.453 266.607 323.324 264.478 320.698 264.478Z" fill="#41A1ED"></path><path d="M126.954 352.832L130.124 349.07C130.26 348.909 130.353 348.716 130.394 348.509C130.436 348.302 130.424 348.089 130.361 347.887C130.297 347.686 130.184 347.505 130.032 347.359C129.879 347.213 129.693 347.109 129.489 347.054L124.661 345.772C124.497 345.728 124.343 345.652 124.209 345.547C124.076 345.442 123.965 345.311 123.883 345.161C123.802 345.012 123.752 344.848 123.736 344.679C123.72 344.51 123.739 344.339 123.791 344.177L125.307 339.493C125.36 339.329 125.447 339.177 125.562 339.048C125.676 338.918 125.817 338.814 125.974 338.742C126.131 338.67 126.301 338.631 126.474 338.627C126.647 338.624 126.819 338.657 126.978 338.723L131.533 340.621C131.729 340.703 131.943 340.733 132.154 340.71C132.365 340.686 132.566 340.609 132.739 340.486C132.912 340.363 133.051 340.198 133.143 340.007C133.235 339.816 133.276 339.604 133.264 339.392L132.964 334.35C132.954 334.18 132.979 334.009 133.037 333.849C133.095 333.688 133.186 333.542 133.303 333.418C133.42 333.293 133.561 333.195 133.717 333.127C133.874 333.059 134.043 333.024 134.213 333.024H139.132C139.304 333.024 139.473 333.06 139.63 333.128C139.788 333.196 139.929 333.296 140.046 333.421C140.163 333.547 140.253 333.695 140.311 333.856C140.368 334.018 140.392 334.189 140.381 334.36L140.04 339.382C140.026 339.594 140.066 339.806 140.157 339.999C140.247 340.192 140.385 340.358 140.558 340.482C140.731 340.606 140.933 340.684 141.144 340.709C141.355 340.734 141.57 340.704 141.766 340.623L146.381 338.718C146.541 338.652 146.712 338.62 146.885 338.623C147.057 338.627 147.227 338.666 147.384 338.739C147.54 338.811 147.68 338.915 147.795 339.044C147.909 339.173 147.996 339.325 148.049 339.489L149.565 344.175C149.617 344.336 149.636 344.507 149.62 344.677C149.604 344.846 149.554 345.011 149.472 345.16C149.391 345.309 149.279 345.44 149.145 345.545C149.011 345.65 148.857 345.726 148.693 345.77L143.803 347.058C143.599 347.112 143.411 347.216 143.258 347.362C143.106 347.507 142.992 347.689 142.928 347.89C142.865 348.092 142.853 348.306 142.894 348.513C142.935 348.72 143.028 348.913 143.165 349.074L146.337 352.838C146.448 352.97 146.531 353.123 146.58 353.289C146.629 353.454 146.644 353.627 146.622 353.798C146.601 353.969 146.545 354.134 146.457 354.282C146.37 354.431 146.252 354.559 146.112 354.66L142.177 357.498C142.039 357.597 141.883 357.667 141.718 357.704C141.552 357.741 141.381 357.744 141.215 357.713C141.048 357.682 140.889 357.617 140.749 357.523C140.608 357.429 140.488 357.307 140.395 357.165L137.701 353.018C137.587 352.843 137.431 352.699 137.247 352.599C137.063 352.499 136.857 352.448 136.647 352.449C136.438 352.449 136.232 352.503 136.049 352.603C135.865 352.704 135.71 352.849 135.597 353.026L132.956 357.158C132.865 357.301 132.745 357.424 132.605 357.519C132.464 357.614 132.306 357.68 132.14 357.712C131.973 357.745 131.802 357.743 131.636 357.707C131.47 357.671 131.314 357.601 131.175 357.503L127.184 354.658C127.043 354.558 126.925 354.429 126.836 354.281C126.747 354.132 126.69 353.967 126.669 353.796C126.647 353.624 126.661 353.45 126.71 353.284C126.759 353.118 126.842 352.964 126.954 352.832Z" fill="#0B82E3"></path><path d="M161.319 352.832L164.489 349.07C164.625 348.909 164.718 348.716 164.759 348.509C164.801 348.302 164.789 348.089 164.726 347.887C164.662 347.686 164.549 347.505 164.397 347.359C164.244 347.213 164.057 347.109 163.854 347.054L159.026 345.772C158.862 345.728 158.708 345.652 158.574 345.547C158.441 345.442 158.33 345.311 158.248 345.161C158.167 345.012 158.117 344.848 158.101 344.679C158.085 344.51 158.104 344.339 158.156 344.177L159.672 339.493C159.725 339.329 159.812 339.177 159.927 339.048C160.041 338.918 160.182 338.814 160.339 338.742C160.496 338.67 160.666 338.631 160.839 338.627C161.012 338.624 161.184 338.657 161.343 338.723L165.898 340.621C166.094 340.703 166.308 340.733 166.519 340.71C166.73 340.686 166.931 340.609 167.104 340.486C167.277 340.363 167.416 340.198 167.508 340.007C167.6 339.816 167.641 339.604 167.629 339.392L167.329 334.35C167.319 334.18 167.344 334.009 167.402 333.849C167.46 333.688 167.551 333.542 167.668 333.418C167.785 333.293 167.926 333.195 168.082 333.127C168.239 333.059 168.408 333.024 168.578 333.024H173.497C173.669 333.024 173.838 333.06 173.996 333.128C174.153 333.196 174.294 333.296 174.411 333.421C174.528 333.547 174.619 333.695 174.676 333.856C174.734 334.018 174.757 334.189 174.746 334.36L174.405 339.382C174.391 339.594 174.431 339.806 174.522 339.999C174.612 340.192 174.75 340.358 174.923 340.482C175.096 340.606 175.298 340.684 175.509 340.709C175.72 340.734 175.935 340.704 176.131 340.623L180.746 338.718C180.906 338.652 181.077 338.62 181.25 338.623C181.422 338.627 181.592 338.666 181.749 338.739C181.905 338.811 182.045 338.915 182.16 339.044C182.274 339.173 182.361 339.325 182.414 339.489L183.93 344.175C183.982 344.336 184.001 344.507 183.985 344.677C183.969 344.846 183.919 345.011 183.837 345.16C183.756 345.309 183.644 345.44 183.51 345.545C183.376 345.65 183.222 345.726 183.058 345.77L178.167 347.057C177.963 347.111 177.776 347.215 177.623 347.361C177.47 347.506 177.357 347.688 177.293 347.889C177.229 348.091 177.218 348.305 177.259 348.512C177.3 348.719 177.393 348.912 177.529 349.073L180.702 352.837C180.813 352.969 180.896 353.122 180.945 353.288C180.994 353.453 181.008 353.626 180.987 353.797C180.966 353.968 180.91 354.133 180.822 354.281C180.734 354.43 180.617 354.558 180.477 354.659L176.541 357.497C176.404 357.596 176.248 357.666 176.082 357.703C175.917 357.74 175.746 357.743 175.579 357.712C175.413 357.681 175.254 357.616 175.113 357.522C174.973 357.428 174.852 357.306 174.76 357.164L172.066 353.017C171.952 352.842 171.796 352.698 171.612 352.598C171.427 352.499 171.221 352.447 171.012 352.448C170.803 352.448 170.597 352.502 170.414 352.602C170.23 352.703 170.075 352.848 169.962 353.025L167.321 357.157C167.23 357.3 167.11 357.423 166.97 357.518C166.83 357.614 166.671 357.679 166.505 357.712C166.338 357.744 166.167 357.742 166.001 357.706C165.835 357.67 165.679 357.601 165.541 357.502L161.549 354.657C161.408 354.557 161.29 354.429 161.201 354.28C161.113 354.132 161.056 353.967 161.034 353.795C161.013 353.624 161.027 353.45 161.076 353.284C161.125 353.118 161.208 352.964 161.319 352.832Z" fill="#0B82E3"></path><path d="M195.684 352.832L198.855 349.07C198.99 348.908 199.083 348.715 199.125 348.509C199.166 348.302 199.155 348.088 199.091 347.887C199.028 347.686 198.914 347.504 198.762 347.358C198.61 347.213 198.423 347.108 198.219 347.054L193.391 345.772C193.227 345.728 193.073 345.652 192.94 345.547C192.806 345.442 192.695 345.311 192.614 345.161C192.532 345.012 192.482 344.848 192.466 344.679C192.451 344.51 192.469 344.339 192.522 344.177L194.037 339.493C194.09 339.329 194.177 339.177 194.292 339.048C194.407 338.918 194.547 338.814 194.704 338.742C194.861 338.67 195.031 338.631 195.204 338.627C195.377 338.624 195.549 338.657 195.709 338.723L200.264 340.621C200.46 340.703 200.673 340.733 200.884 340.71C201.095 340.686 201.296 340.609 201.469 340.486C201.642 340.363 201.781 340.198 201.873 340.007C201.965 339.816 202.006 339.604 201.994 339.392L201.695 334.35C201.684 334.18 201.709 334.009 201.767 333.849C201.826 333.688 201.916 333.542 202.033 333.417C202.15 333.293 202.291 333.194 202.448 333.127C202.604 333.059 202.773 333.024 202.944 333.024H207.862C208.034 333.024 208.203 333.06 208.361 333.128C208.518 333.196 208.66 333.296 208.777 333.421C208.894 333.547 208.984 333.695 209.041 333.856C209.099 334.018 209.122 334.189 209.111 334.36L208.771 339.382C208.756 339.594 208.796 339.806 208.887 339.999C208.977 340.192 209.116 340.358 209.288 340.482C209.461 340.606 209.663 340.685 209.874 340.709C210.086 340.734 210.3 340.704 210.496 340.623L215.111 338.718C215.271 338.652 215.442 338.62 215.615 338.623C215.787 338.627 215.957 338.666 216.114 338.739C216.271 338.811 216.411 338.915 216.525 339.044C216.64 339.173 216.726 339.325 216.779 339.489L218.295 344.175C218.347 344.336 218.366 344.507 218.35 344.677C218.334 344.846 218.284 345.011 218.202 345.16C218.121 345.309 218.01 345.44 217.876 345.545C217.742 345.65 217.588 345.726 217.423 345.77L212.533 347.057C212.328 347.111 212.141 347.215 211.988 347.361C211.835 347.506 211.722 347.688 211.658 347.889C211.595 348.091 211.583 348.305 211.624 348.512C211.665 348.719 211.758 348.912 211.894 349.073L215.067 352.837C215.178 352.969 215.261 353.122 215.31 353.288C215.359 353.453 215.373 353.626 215.352 353.797C215.331 353.968 215.275 354.133 215.187 354.281C215.1 354.43 214.982 354.558 214.842 354.659L210.906 357.497C210.769 357.596 210.613 357.666 210.447 357.703C210.282 357.74 210.111 357.743 209.944 357.712C209.778 357.681 209.619 357.616 209.479 357.522C209.338 357.428 209.218 357.306 209.125 357.164L206.431 353.017C206.317 352.842 206.161 352.698 205.977 352.598C205.793 352.499 205.586 352.447 205.377 352.448C205.168 352.448 204.962 352.502 204.779 352.602C204.595 352.703 204.44 352.848 204.327 353.025L201.686 357.157C201.595 357.3 201.475 357.423 201.335 357.518C201.194 357.613 201.036 357.679 200.87 357.711C200.703 357.744 200.532 357.742 200.366 357.706C200.2 357.67 200.043 357.601 199.905 357.502L195.914 354.657C195.773 354.557 195.655 354.428 195.566 354.28C195.478 354.132 195.421 353.966 195.399 353.795C195.377 353.623 195.392 353.449 195.441 353.283C195.49 353.118 195.573 352.964 195.684 352.832Z" fill="#0B82E3"></path><path d="M230.049 352.832L233.22 349.07C233.356 348.908 233.449 348.715 233.49 348.509C233.531 348.302 233.52 348.088 233.456 347.887C233.393 347.686 233.28 347.504 233.127 347.358C232.975 347.213 232.788 347.108 232.584 347.054L227.756 345.772C227.592 345.728 227.438 345.652 227.305 345.547C227.171 345.442 227.06 345.311 226.979 345.161C226.898 345.012 226.847 344.848 226.832 344.679C226.816 344.51 226.835 344.339 226.887 344.177L228.402 339.493C228.455 339.329 228.542 339.177 228.657 339.048C228.772 338.918 228.912 338.814 229.069 338.742C229.226 338.67 229.397 338.631 229.57 338.627C229.743 338.624 229.914 338.657 230.074 338.723L234.629 340.621C234.825 340.703 235.038 340.733 235.249 340.71C235.46 340.686 235.662 340.609 235.835 340.486C236.008 340.363 236.147 340.198 236.238 340.007C236.33 339.816 236.372 339.604 236.359 339.392L236.06 334.35C236.05 334.18 236.075 334.009 236.133 333.849C236.191 333.688 236.281 333.542 236.398 333.417C236.515 333.293 236.656 333.194 236.813 333.127C236.97 333.059 237.138 333.024 237.309 333.024H242.228C242.399 333.024 242.569 333.06 242.726 333.128C242.883 333.196 243.025 333.296 243.142 333.421C243.259 333.547 243.349 333.695 243.406 333.856C243.464 334.018 243.488 334.189 243.476 334.36L243.136 339.382C243.122 339.594 243.162 339.806 243.252 339.999C243.343 340.192 243.481 340.358 243.654 340.482C243.826 340.606 244.028 340.685 244.239 340.709C244.451 340.734 244.665 340.704 244.862 340.623L249.477 338.718C249.636 338.652 249.808 338.62 249.98 338.623C250.153 338.627 250.323 338.666 250.479 338.739C250.636 338.811 250.776 338.915 250.89 339.044C251.005 339.173 251.091 339.325 251.145 339.489L252.66 344.175C252.713 344.336 252.731 344.507 252.716 344.677C252.7 344.846 252.649 345.011 252.568 345.16C252.486 345.309 252.375 345.44 252.241 345.545C252.107 345.65 251.953 345.726 251.788 345.77L246.898 347.057C246.694 347.111 246.507 347.215 246.354 347.361C246.201 347.506 246.087 347.688 246.024 347.889C245.96 348.091 245.948 348.305 245.989 348.512C246.031 348.719 246.124 348.912 246.26 349.073L249.432 352.837C249.544 352.969 249.626 353.122 249.675 353.288C249.724 353.453 249.739 353.626 249.718 353.797C249.696 353.968 249.64 354.133 249.553 354.281C249.465 354.43 249.347 354.558 249.208 354.659L245.272 357.497C245.134 357.596 244.978 357.666 244.813 357.703C244.647 357.74 244.476 357.743 244.31 357.712C244.143 357.681 243.985 357.616 243.844 357.522C243.703 357.428 243.583 357.306 243.49 357.164L240.797 353.017C240.683 352.842 240.527 352.698 240.342 352.598C240.158 352.499 239.952 352.447 239.743 352.448C239.534 352.448 239.328 352.502 239.145 352.602C238.961 352.703 238.806 352.848 238.693 353.025L236.052 357.157C235.96 357.3 235.841 357.423 235.7 357.518C235.56 357.613 235.402 357.679 235.235 357.711C235.069 357.744 234.897 357.742 234.732 357.706C234.566 357.67 234.409 357.6 234.271 357.502L230.28 354.657C230.139 354.557 230.02 354.429 229.932 354.28C229.843 354.132 229.786 353.967 229.765 353.795C229.743 353.623 229.757 353.449 229.806 353.284C229.855 353.118 229.938 352.964 230.049 352.832Z" fill="url(#paint11_linear)"></path><path d="M264.414 352.832L267.585 349.07C267.721 348.908 267.814 348.715 267.855 348.509C267.896 348.302 267.885 348.088 267.821 347.887C267.758 347.686 267.645 347.504 267.492 347.358C267.34 347.213 267.153 347.108 266.949 347.054L262.121 345.772C261.957 345.728 261.803 345.652 261.67 345.547C261.536 345.442 261.425 345.311 261.344 345.161C261.262 345.012 261.212 344.848 261.197 344.679C261.181 344.51 261.2 344.339 261.252 344.177L262.767 339.493C262.82 339.329 262.907 339.177 263.022 339.048C263.137 338.918 263.277 338.814 263.434 338.742C263.591 338.67 263.762 338.631 263.935 338.627C264.108 338.624 264.279 338.657 264.439 338.723L268.994 340.621C269.19 340.703 269.403 340.733 269.614 340.71C269.825 340.686 270.027 340.609 270.2 340.486C270.373 340.363 270.512 340.198 270.603 340.007C270.695 339.816 270.737 339.604 270.724 339.392L270.425 334.35C270.415 334.18 270.44 334.009 270.498 333.849C270.556 333.688 270.646 333.542 270.763 333.417C270.88 333.293 271.021 333.194 271.178 333.127C271.335 333.059 271.503 333.024 271.674 333.024H276.593C276.764 333.024 276.934 333.06 277.091 333.128C277.248 333.196 277.39 333.296 277.507 333.421C277.624 333.547 277.714 333.695 277.771 333.856C277.829 334.018 277.853 334.189 277.841 334.36L277.501 339.382C277.486 339.594 277.526 339.806 277.617 339.999C277.708 340.192 277.846 340.358 278.019 340.482C278.191 340.606 278.393 340.685 278.604 340.709C278.816 340.734 279.03 340.704 279.227 340.623L283.842 338.718C284.001 338.652 284.173 338.62 284.345 338.623C284.518 338.627 284.688 338.666 284.844 338.739C285.001 338.811 285.141 338.915 285.255 339.044C285.37 339.173 285.456 339.325 285.51 339.489L287.025 344.175C287.078 344.336 287.096 344.507 287.081 344.677C287.065 344.846 287.014 345.011 286.933 345.16C286.851 345.309 286.74 345.44 286.606 345.545C286.472 345.65 286.318 345.726 286.153 345.77L281.263 347.057C281.059 347.111 280.872 347.215 280.719 347.361C280.566 347.506 280.452 347.688 280.388 347.889C280.325 348.091 280.313 348.305 280.354 348.512C280.396 348.719 280.489 348.912 280.625 349.073L283.797 352.837C283.908 352.969 283.991 353.122 284.04 353.288C284.089 353.453 284.104 353.626 284.083 353.797C284.061 353.968 284.005 354.133 283.918 354.281C283.83 354.43 283.712 354.558 283.573 354.659L279.637 357.497C279.499 357.596 279.343 357.666 279.178 357.703C279.012 357.74 278.841 357.743 278.675 357.712C278.508 357.681 278.35 357.616 278.209 357.522C278.068 357.428 277.948 357.306 277.855 357.164L275.162 353.017C275.048 352.842 274.892 352.698 274.707 352.598C274.523 352.499 274.317 352.447 274.108 352.448C273.899 352.448 273.693 352.502 273.51 352.602C273.326 352.703 273.171 352.848 273.058 353.025L270.417 357.157C270.325 357.3 270.206 357.423 270.065 357.518C269.925 357.613 269.767 357.679 269.6 357.711C269.434 357.744 269.262 357.742 269.097 357.706C268.931 357.67 268.774 357.6 268.636 357.502L264.645 354.657C264.504 354.557 264.386 354.428 264.297 354.28C264.208 354.132 264.151 353.966 264.13 353.795C264.108 353.623 264.122 353.449 264.171 353.284C264.22 353.118 264.303 352.964 264.414 352.832Z" fill="#0B82E3"></path><path d="M298.78 352.832L301.95 349.07C302.086 348.908 302.179 348.715 302.22 348.509C302.262 348.302 302.25 348.088 302.187 347.887C302.123 347.686 302.01 347.504 301.857 347.358C301.705 347.213 301.518 347.108 301.314 347.054L296.486 345.772C296.322 345.728 296.169 345.652 296.035 345.547C295.901 345.442 295.79 345.311 295.709 345.161C295.628 345.012 295.578 344.848 295.562 344.679C295.546 344.51 295.565 344.339 295.617 344.177L297.132 339.493C297.186 339.329 297.272 339.177 297.387 339.048C297.502 338.918 297.642 338.814 297.8 338.742C297.957 338.67 298.127 338.631 298.3 338.627C298.473 338.624 298.645 338.657 298.804 338.723L303.359 340.621C303.555 340.703 303.768 340.733 303.979 340.71C304.19 340.686 304.392 340.609 304.565 340.486C304.738 340.363 304.877 340.198 304.969 340.007C305.06 339.816 305.102 339.604 305.089 339.392L304.79 334.35C304.78 334.18 304.805 334.009 304.863 333.849C304.921 333.688 305.011 333.542 305.128 333.418C305.245 333.293 305.386 333.194 305.543 333.127C305.7 333.059 305.868 333.024 306.039 333.024H310.958C311.129 333.024 311.299 333.06 311.456 333.128C311.613 333.196 311.755 333.296 311.872 333.421C311.989 333.547 312.079 333.695 312.137 333.856C312.194 334.018 312.218 334.189 312.206 334.36L311.866 339.382C311.852 339.594 311.892 339.806 311.982 339.999C312.073 340.192 312.211 340.358 312.384 340.482C312.557 340.606 312.758 340.684 312.97 340.709C313.181 340.734 313.395 340.704 313.592 340.623L318.207 338.718C318.366 338.652 318.538 338.62 318.71 338.623C318.883 338.627 319.053 338.666 319.209 338.739C319.366 338.811 319.506 338.915 319.62 339.044C319.735 339.173 319.822 339.325 319.875 339.489L321.39 344.175C321.443 344.336 321.462 344.507 321.446 344.677C321.43 344.846 321.379 345.011 321.298 345.16C321.216 345.309 321.105 345.44 320.971 345.545C320.837 345.65 320.683 345.726 320.518 345.77L315.628 347.057C315.424 347.111 315.237 347.215 315.084 347.361C314.931 347.506 314.817 347.688 314.754 347.889C314.69 348.091 314.678 348.305 314.719 348.512C314.761 348.719 314.854 348.912 314.99 349.073L318.163 352.837C318.274 352.969 318.356 353.122 318.405 353.288C318.454 353.453 318.469 353.626 318.448 353.797C318.427 353.968 318.37 354.133 318.283 354.281C318.195 354.43 318.077 354.558 317.938 354.659L314.002 357.497C313.864 357.596 313.708 357.666 313.543 357.703C313.377 357.74 313.206 357.743 313.04 357.712C312.873 357.681 312.715 357.616 312.574 357.522C312.433 357.428 312.313 357.306 312.221 357.164L309.527 353.017C309.413 352.842 309.257 352.698 309.073 352.598C308.888 352.499 308.682 352.447 308.473 352.448C308.264 352.448 308.058 352.502 307.875 352.602C307.691 352.703 307.536 352.848 307.423 353.025L304.782 357.157C304.69 357.3 304.571 357.423 304.431 357.518C304.29 357.613 304.132 357.679 303.965 357.711C303.799 357.744 303.628 357.742 303.462 357.706C303.296 357.67 303.139 357.6 303.001 357.502L299.01 354.657C298.869 354.557 298.751 354.428 298.662 354.28C298.573 354.132 298.516 353.966 298.495 353.795C298.473 353.623 298.487 353.449 298.536 353.284C298.585 353.118 298.668 352.964 298.78 352.832Z" fill="#0B82E3"></path><path d="M333.145 352.832L336.315 349.07C336.451 348.908 336.544 348.715 336.585 348.509C336.627 348.302 336.615 348.088 336.552 347.887C336.488 347.686 336.375 347.504 336.223 347.358C336.07 347.213 335.883 347.108 335.68 347.054L330.852 345.771C330.688 345.728 330.534 345.651 330.4 345.546C330.267 345.441 330.156 345.31 330.075 345.161C329.993 345.012 329.943 344.848 329.927 344.679C329.911 344.51 329.93 344.339 329.983 344.177L331.498 339.493C331.551 339.329 331.638 339.177 331.753 339.048C331.867 338.918 332.008 338.814 332.165 338.742C332.322 338.67 332.492 338.631 332.665 338.627C332.838 338.624 333.01 338.657 333.17 338.723L337.724 340.621C337.92 340.703 338.134 340.733 338.345 340.71C338.556 340.686 338.757 340.609 338.93 340.486C339.103 340.363 339.242 340.198 339.334 340.007C339.426 339.816 339.467 339.604 339.455 339.392L339.155 334.35C339.145 334.18 339.17 334.009 339.228 333.849C339.286 333.688 339.377 333.542 339.494 333.418C339.611 333.293 339.752 333.195 339.909 333.127C340.065 333.059 340.234 333.024 340.404 333.024H345.323C345.495 333.024 345.664 333.06 345.822 333.128C345.979 333.196 346.12 333.296 346.237 333.421C346.354 333.547 346.445 333.695 346.502 333.856C346.56 334.018 346.583 334.189 346.572 334.36L346.231 339.382C346.217 339.594 346.257 339.806 346.348 339.999C346.438 340.192 346.577 340.358 346.749 340.482C346.922 340.606 347.124 340.684 347.335 340.709C347.546 340.734 347.761 340.704 347.957 340.623L352.572 338.718C352.732 338.652 352.903 338.62 353.076 338.623C353.248 338.627 353.418 338.666 353.575 338.739C353.731 338.811 353.871 338.915 353.986 339.044C354.1 339.173 354.187 339.325 354.24 339.489L355.756 344.175C355.808 344.336 355.827 344.507 355.811 344.677C355.795 344.846 355.745 345.011 355.663 345.16C355.582 345.309 355.47 345.44 355.336 345.545C355.202 345.65 355.048 345.726 354.884 345.77L349.993 347.057C349.789 347.111 349.602 347.215 349.449 347.361C349.296 347.506 349.183 347.688 349.119 347.889C349.055 348.091 349.044 348.305 349.085 348.512C349.126 348.719 349.219 348.912 349.355 349.073L352.528 352.837C352.639 352.969 352.722 353.122 352.771 353.288C352.82 353.453 352.834 353.626 352.813 353.797C352.792 353.968 352.736 354.133 352.648 354.281C352.56 354.43 352.443 354.558 352.303 354.659L348.367 357.497C348.23 357.596 348.074 357.666 347.908 357.703C347.743 357.74 347.572 357.743 347.405 357.712C347.239 357.681 347.08 357.616 346.939 357.522C346.799 357.428 346.678 357.306 346.586 357.164L343.892 353.017C343.778 352.842 343.622 352.698 343.438 352.598C343.253 352.499 343.047 352.447 342.838 352.448C342.629 352.448 342.423 352.502 342.24 352.602C342.056 352.703 341.901 352.848 341.788 353.025L339.147 357.157C339.055 357.3 338.936 357.423 338.796 357.518C338.655 357.613 338.497 357.679 338.33 357.711C338.164 357.744 337.993 357.742 337.827 357.706C337.661 357.67 337.504 357.601 337.366 357.502L333.375 354.657C333.235 354.557 333.116 354.429 333.027 354.28C332.939 354.132 332.882 353.967 332.86 353.795C332.838 353.624 332.853 353.449 332.902 353.284C332.951 353.118 333.033 352.964 333.145 352.832Z" fill="#0B82E3"></path><path d="M367.51 352.832L370.681 349.07C370.817 348.908 370.91 348.715 370.951 348.509C370.992 348.302 370.981 348.088 370.917 347.887C370.854 347.686 370.741 347.504 370.588 347.358C370.436 347.213 370.249 347.108 370.045 347.054L365.217 345.772C365.053 345.728 364.899 345.652 364.766 345.547C364.632 345.442 364.521 345.311 364.44 345.161C364.358 345.012 364.308 344.848 364.293 344.679C364.277 344.51 364.296 344.339 364.348 344.177L365.863 339.493C365.916 339.329 366.003 339.177 366.118 339.048C366.233 338.918 366.373 338.814 366.53 338.742C366.687 338.67 366.858 338.631 367.031 338.627C367.203 338.624 367.375 338.657 367.535 338.723L372.09 340.621C372.286 340.703 372.499 340.733 372.71 340.71C372.921 340.686 373.123 340.609 373.296 340.486C373.469 340.363 373.608 340.198 373.699 340.007C373.791 339.816 373.833 339.604 373.82 339.392L373.521 334.35C373.511 334.18 373.535 334.009 373.594 333.849C373.652 333.688 373.742 333.542 373.859 333.417C373.976 333.293 374.117 333.194 374.274 333.127C374.43 333.059 374.599 333.024 374.77 333.024H379.689C379.86 333.024 380.03 333.06 380.187 333.128C380.344 333.196 380.486 333.296 380.603 333.421C380.72 333.547 380.81 333.695 380.867 333.856C380.925 334.018 380.949 334.189 380.937 334.36L380.597 339.382C380.582 339.594 380.622 339.806 380.713 339.999C380.804 340.192 380.942 340.358 381.115 340.482C381.287 340.606 381.489 340.684 381.7 340.709C381.912 340.734 382.126 340.704 382.323 340.623L386.937 338.718C387.097 338.652 387.268 338.62 387.441 338.623C387.614 338.627 387.784 338.666 387.94 338.739C388.097 338.811 388.237 338.915 388.351 339.044C388.466 339.173 388.552 339.325 388.605 339.489L390.121 344.175C390.174 344.336 390.192 344.507 390.176 344.677C390.161 344.846 390.11 345.011 390.029 345.16C389.947 345.309 389.836 345.44 389.702 345.545C389.568 345.65 389.414 345.726 389.249 345.77L384.359 347.057C384.154 347.111 383.967 347.216 383.814 347.361C383.661 347.507 383.548 347.689 383.484 347.89C383.42 348.091 383.409 348.305 383.45 348.512C383.491 348.719 383.584 348.913 383.72 349.074L386.893 352.838C387.004 352.97 387.087 353.123 387.136 353.288C387.185 353.453 387.199 353.627 387.178 353.798C387.157 353.969 387.101 354.134 387.013 354.282C386.925 354.43 386.808 354.559 386.668 354.659L382.732 357.498C382.595 357.597 382.439 357.667 382.273 357.704C382.108 357.741 381.937 357.744 381.77 357.713C381.604 357.682 381.445 357.617 381.304 357.523C381.164 357.428 381.043 357.306 380.951 357.164L378.258 353.018C378.143 352.842 377.987 352.698 377.803 352.599C377.619 352.499 377.413 352.447 377.204 352.448C376.994 352.449 376.789 352.502 376.605 352.603C376.422 352.704 376.267 352.849 376.154 353.025L373.512 357.158C373.421 357.3 373.302 357.423 373.161 357.519C373.021 357.614 372.863 357.68 372.696 357.712C372.53 357.744 372.358 357.742 372.192 357.706C372.027 357.67 371.87 357.601 371.732 357.503L367.741 354.658C367.6 354.558 367.481 354.429 367.393 354.281C367.304 354.132 367.247 353.967 367.225 353.795C367.203 353.624 367.217 353.45 367.266 353.284C367.315 353.118 367.398 352.964 367.51 352.832Z" fill="#0B82E3"></path><path d="M309.802 184.648C309.274 183.178 308.371 181.872 307.183 180.858C305.995 179.844 304.563 179.157 303.029 178.866C293.219 176.993 283.518 174.589 273.969 171.663C264.846 171.014 256.452 170.329 256.452 170.329C248.286 170.502 240.213 172.092 232.592 175.027C242.744 184.671 255.719 190.809 269.615 192.54C283.51 194.272 297.595 191.506 309.803 184.648H309.802Z" fill="url(#paint12_linear)"></path><path d="M287.83 175.516C288.14 176.295 288.636 176.987 289.274 177.531L290.655 176.208C289.737 175.988 288.792 175.756 287.83 175.516Z" fill="#41A1ED"></path><path d="M305.73 264.478H140.241C138.979 264.478 137.77 264.979 136.878 265.87C135.986 266.762 135.485 267.972 135.485 269.233V291.122C135.485 292.383 135.986 293.593 136.878 294.484C137.77 295.376 138.979 295.877 140.241 295.877H297.091C300.815 285.662 303.704 275.161 305.73 264.478Z" fill="url(#paint13_linear)"></path><path d="M186.511 210.575C185.053 210.575 183.655 211.154 182.624 212.184C181.594 213.215 181.015 214.613 181.015 216.071V245.898C181.015 247.355 181.594 248.753 182.624 249.784C183.655 250.815 185.053 251.394 186.511 251.394H307.877C309.553 238.746 310.374 226 310.337 213.242V210.574L186.511 210.575Z" fill="url(#paint14_linear)"></path><path d="M281.764 162.985C264.899 159.789 222.717 149.929 196.714 127.561C195.084 126.152 193.005 125.368 190.851 125.351C188.696 125.334 186.605 126.085 184.953 127.468C158.875 149.149 116.65 159.483 99.8903 162.894C97.8593 163.31 96.0343 164.415 94.7246 166.022C93.4148 167.629 92.7007 169.639 92.7034 171.712V197.36C92.7034 325.817 168.439 358.819 186.877 364.95C189.48 365.817 192.294 365.817 194.898 364.95C213.336 358.819 289.072 325.817 289.072 197.36V171.826C289.074 169.732 288.346 167.702 287.012 166.088C285.677 164.474 283.821 163.376 281.764 162.985Z" fill="#003EA1"></path><path d="M144.295 170.503C147.613 182.906 152.4 194.113 167.985 198.227C168.284 198.298 168.55 198.47 168.736 198.715C168.923 198.959 169.019 199.261 169.008 199.568C168.998 199.875 168.881 200.169 168.678 200.4C168.475 200.631 168.199 200.785 167.896 200.835C152.785 203.644 147.26 210.954 144.251 226.264C144.188 226.564 144.024 226.834 143.786 227.028C143.548 227.222 143.25 227.328 142.943 227.33C142.636 227.331 142.338 227.226 142.098 227.034C141.859 226.841 141.693 226.573 141.628 226.272C138.431 211.292 132.695 204.178 116.556 200.922C116.261 200.863 115.995 200.707 115.801 200.478C115.607 200.249 115.496 199.961 115.487 199.662C115.478 199.362 115.57 199.067 115.749 198.827C115.929 198.586 116.184 198.413 116.474 198.337C131.848 194.172 138.302 182.588 141.72 170.479C141.797 170.196 141.967 169.946 142.201 169.768C142.436 169.591 142.723 169.496 143.017 169.499C143.311 169.501 143.596 169.601 143.827 169.783C144.058 169.965 144.223 170.218 144.295 170.503Z" fill="#41A1ED"></path><path opacity="0.45" d="M281.764 162.985C264.899 159.789 222.717 149.929 196.714 127.562C195.668 126.658 194.43 126.006 193.093 125.655C191.757 125.304 190.358 125.263 189.003 125.536V365.455C190.98 365.754 193 365.581 194.898 364.951C213.336 358.819 289.072 325.817 289.072 197.36V171.826C289.075 169.732 288.346 167.702 287.012 166.088C285.678 164.474 283.821 163.376 281.764 162.985Z" fill="url(#paint15_radial)"></path><path d="M276.593 333.024H271.674C271.504 333.024 271.335 333.059 271.178 333.127C271.022 333.194 270.881 333.293 270.764 333.417C270.647 333.542 270.556 333.688 270.498 333.849C270.44 334.009 270.415 334.18 270.425 334.35L270.725 339.392C270.737 339.604 270.696 339.816 270.604 340.007C270.512 340.198 270.373 340.363 270.2 340.486C270.027 340.609 269.826 340.686 269.615 340.71C269.404 340.733 269.19 340.703 268.994 340.621L264.439 338.723C264.28 338.657 264.108 338.624 263.935 338.627C263.762 338.631 263.592 338.67 263.435 338.742C263.278 338.814 263.137 338.918 263.023 339.048C262.908 339.177 262.821 339.329 262.768 339.493L261.252 344.177C261.2 344.339 261.181 344.51 261.197 344.679C261.213 344.848 261.263 345.012 261.344 345.161C261.426 345.311 261.537 345.442 261.67 345.547C261.804 345.652 261.958 345.728 262.122 345.772L266.59 346.958C270.507 342.679 274.156 338.162 277.515 333.432C277.398 333.303 277.256 333.201 277.097 333.131C276.938 333.06 276.766 333.024 276.593 333.024Z" fill="url(#paint16_linear)"></path><defs><linearGradient id="paint0_linear" x1="176.447" y1="230.023" x2="296.498" y2="307.994" gradientUnits="userSpaceOnUse"><stop offset="0.0057" stop-color="#41A1ED"></stop><stop offset="1" stop-color="#C5E5FC"></stop></linearGradient><linearGradient id="paint1_linear" x1="275.027" y1="162.537" x2="277.754" y2="149.083" gradientUnits="userSpaceOnUse"><stop stop-color="#F7B391"></stop><stop offset="1" stop-color="#F3A078"></stop></linearGradient><linearGradient id="paint2_linear" x1="9442.9" y1="636.858" x2="9444.74" y2="541.649" gradientUnits="userSpaceOnUse"><stop stop-color="#F7B391"></stop><stop offset="1" stop-color="#F3A078"></stop></linearGradient><linearGradient id="paint3_linear" x1="274.559" y1="77.0531" x2="281.377" y2="118.506" gradientUnits="userSpaceOnUse"><stop stop-color="#A65000"></stop><stop offset="1" stop-color="#7E3200"></stop></linearGradient><linearGradient id="paint4_linear" x1="7850.35" y1="1146.7" x2="7843.19" y2="882.132" gradientUnits="userSpaceOnUse"><stop stop-color="#F7B391"></stop><stop offset="1" stop-color="#F3A078"></stop></linearGradient><linearGradient id="paint5_linear" x1="285.391" y1="129.692" x2="294.391" y2="133.374" gradientUnits="userSpaceOnUse"><stop stop-color="#F7B391"></stop><stop offset="1" stop-color="#EF956A"></stop></linearGradient><linearGradient id="paint6_linear" x1="296.391" y1="179.423" x2="292.703" y2="169.713" gradientUnits="userSpaceOnUse"><stop stop-color="#F9C900"></stop><stop offset="1" stop-color="#EA9F00"></stop></linearGradient><linearGradient id="paint7_linear" x1="3729.3" y1="1715.21" x2="3810.34" y2="1430.76" gradientUnits="userSpaceOnUse"><stop stop-color="#F9C900"></stop><stop offset="1" stop-color="#EA9F00"></stop></linearGradient><linearGradient id="paint8_linear" x1="284.453" y1="165.815" x2="276.384" y2="204.588" gradientUnits="userSpaceOnUse"><stop stop-color="#C5E5FC"></stop><stop offset="1" stop-color="#87CAFA"></stop></linearGradient><linearGradient id="paint9_linear" x1="277.305" y1="172.587" x2="277.457" y2="167.397" gradientUnits="userSpaceOnUse"><stop stop-color="#87CAFA"></stop><stop offset="1" stop-color="#64B5F3"></stop></linearGradient><linearGradient id="paint10_linear" x1="1872.42" y1="1289.09" x2="1926.78" y2="1289.09" gradientUnits="userSpaceOnUse"><stop stop-color="#87CAFA"></stop><stop offset="1" stop-color="#64B5F3"></stop></linearGradient><linearGradient id="paint11_linear" x1="216.649" y1="325.916" x2="267.599" y2="370.471" gradientUnits="userSpaceOnUse"><stop offset="0.0003" stop-color="#003EA1"></stop><stop offset="1" stop-color="#015CBE"></stop></linearGradient><linearGradient id="paint12_linear" x1="314.615" y1="194.474" x2="274.701" y2="182.716" gradientUnits="userSpaceOnUse"><stop offset="0.0057" stop-color="#F9C900"></stop><stop offset="1" stop-color="#EA9F00"></stop></linearGradient><linearGradient id="paint13_linear" x1="296.918" y1="306.867" x2="248.65" y2="289.539" gradientUnits="userSpaceOnUse"><stop offset="0.0003" stop-color="#41A1ED"></stop><stop offset="1" stop-color="#015CBE"></stop></linearGradient><linearGradient id="paint14_linear" x1="31340" y1="6867.86" x2="24209.5" y2="3517.58" gradientUnits="userSpaceOnUse"><stop stop-color="#41A1ED"></stop><stop offset="0.645833" stop-color="#015CBE"></stop></linearGradient><radialGradient id="paint15_radial" cx="0" cy="0" r="1" gradientUnits="userSpaceOnUse" gradientTransform="translate(299.197 256.034) rotate(-178.881) scale(117.969 225.002)"><stop offset="0.0057" stop-color="#015CBE"></stop><stop offset="1" stop-color="#0C227B"></stop></radialGradient><linearGradient id="paint16_linear" x1="3496.82" y1="3926.53" x2="3313.25" y2="3758.22" gradientUnits="userSpaceOnUse"><stop offset="0.0003" stop-color="#41A1ED"></stop><stop offset="1" stop-color="#015CBE"></stop></linearGradient></defs></svg> 